<svg id="Layer_1" data-name="Layer 1" xmlns="http://www.w3.org/2000/svg" viewBox="0 0 233 31"><defs><style>.cls-1{fill:#353535;}</style></defs><path class="cls-1" d="M62.83,18.51H60.49V25.6H55.81V7.6h4.68v7.31H62.4L68.34,7.6h5.29L66.46,16l4.43,5.65h3.17v4h-5.4Z"/><path class="cls-1" d="M75.93,16.6a11.09,11.09,0,0,1,.68-4,8.1,8.1,0,0,1,4.95-4.84,11.46,11.46,0,0,1,3.91-.63,11.25,11.25,0,0,1,4,.68,8.36,8.36,0,0,1,3,1.93,8.11,8.11,0,0,1,1.85,3A11.49,11.49,0,0,1,95,16.6a11.11,11.11,0,0,1-.68,4,8.11,8.11,0,0,1-5,4.84,11.46,11.46,0,0,1-3.91.63,11.25,11.25,0,0,1-4-.68,8.34,8.34,0,0,1-3-1.93,8.09,8.09,0,0,1-1.85-3A11.49,11.49,0,0,1,75.93,16.6Zm4.82,0a7.14,7.14,0,0,0,.32,2.2A5.38,5.38,0,0,0,82,20.56a4.23,4.23,0,0,0,1.48,1.17,4.52,4.52,0,0,0,2,.41,4.57,4.57,0,0,0,3.4-1.33,5.81,5.81,0,0,0,1.31-4.21,6.24,6.24,0,0,0-1.22-4,4.22,4.22,0,0,0-3.49-1.53,5.58,5.58,0,0,0-1.87.31,3.67,3.67,0,0,0-1.49,1,4.83,4.83,0,0,0-1,1.73A7.77,7.77,0,0,0,80.76,16.6Z"/><path class="cls-1" d="M112.15,17.36l.11-3.74h-.18l-4.64,6.88h-1l-4.9-6.88h-.22l.29,3.71V25.6H97.46V7.6h4.86l4.79,6.88h.14l4.5-6.88h4.9v18h-4.5Z"/><path class="cls-1" d="M132.59,11.74h-7.85V25.6h-4.68V7.6h17.21v18h-4.68Z"/><path class="cls-1" d="M154.05,17.39l.18-2.56h-.11L145.45,25.6h-3.67V7.6h4.68v8.57l-.22,2.45h.14l8.68-11h3.67v18h-4.68Z"/><path class="cls-1" d="M175.07,11.74h-4.64q-.22,2.56-.56,5.08a23,23,0,0,1-1,4.52A9.33,9.33,0,0,1,167,24.58a3.71,3.71,0,0,1-2.86,1.24,6,6,0,0,1-3-.53l.58-3.83a3.08,3.08,0,0,0,1.08.22,1.8,1.8,0,0,0,1.31-.61,5.38,5.38,0,0,0,1-2.21,27.06,27.06,0,0,0,.74-4.32q.29-2.73.4-6.93h13.43v18h-4.68Z"/><path class="cls-1" d="M197.25,17.39l.18-2.56h-.11L188.65,25.6H185V7.6h4.68v8.57l-.22,2.45h.14l8.68-11h3.67v18h-4.68Z"/><path class="cls-1" d="M220.15,17.36l.11-3.74h-.18l-4.64,6.88h-1l-4.9-6.88h-.22l.29,3.71V25.6h-4.18V7.6h4.86l4.79,6.88h.14l4.5-6.88h4.9v18h-4.5Z"/><path class="cls-1" d="M228.68,21.88h4v3.85h-4Z"/><polygon class="cls-1" points="10.7 11.66 23.68 19.34 18.34 22.5 0.02 11.66 18.34 1.13 23.68 4.2 10.7 11.66"/><polygon class="cls-1" points="34.46 19.52 21.48 27.2 26.83 30.36 45.15 19.52 26.83 8.98 21.48 12.05 34.46 19.52"/></svg>