<?xml version="1.0" encoding="utf-8"?><svg xmlns="http://www.w3.org/2000/svg" xmlns:xlink="http://www.w3.org/1999/xlink"><symbol id="Compiler_Icon" viewBox="0 0 36 21" xmlns="http://www.w3.org/2000/svg"><defs><style>.acls-1{fill:#043493}</style></defs><path class="acls-1" d="M15.94.83L1 9.48l19.34 11.18 15-8.64zM5 9.48l10.94-6.34L31.33 12l-11 6.33z"/><path class="acls-1" transform="rotate(-29.99 13.622 8.15)" d="M8.68 7.64h9.9v1h-9.9z"/><path class="acls-1" transform="rotate(-29.99 15.846 9.406)" d="M10.88 8.91h9.9v1h-9.9z"/><path class="acls-1" transform="rotate(-29.99 16.934 11.318)" d="M13.24 10.82h7.36v1h-7.36z"/></symbol><symbol id="Compiler_Logo" viewBox="0 0 233 31" xmlns="http://www.w3.org/2000/svg"><defs><style>.bcls-1{fill:#353535}</style></defs><path class="bcls-1" d="M62.83 18.51h-2.34v7.09h-4.68v-18h4.68v7.31h1.91l5.94-7.31h5.29L66.46 16l4.43 5.65h3.17v4h-5.4zm13.1-1.91a11.09 11.09 0 0 1 .68-4 8.1 8.1 0 0 1 4.95-4.84 11.46 11.46 0 0 1 3.91-.63 11.25 11.25 0 0 1 4 .68 8.36 8.36 0 0 1 3 1.93 8.11 8.11 0 0 1 1.85 3A11.49 11.49 0 0 1 95 16.6a11.11 11.11 0 0 1-.68 4 8.11 8.11 0 0 1-5 4.84 11.46 11.46 0 0 1-3.91.63 11.25 11.25 0 0 1-4-.68 8.34 8.34 0 0 1-3-1.93 8.09 8.09 0 0 1-1.85-3 11.49 11.49 0 0 1-.63-3.86zm4.82 0a7.14 7.14 0 0 0 .32 2.2 5.38 5.38 0 0 0 .93 1.76 4.23 4.23 0 0 0 1.48 1.17 4.52 4.52 0 0 0 2 .41 4.57 4.57 0 0 0 3.4-1.33 5.81 5.81 0 0 0 1.31-4.21 6.24 6.24 0 0 0-1.22-4 4.22 4.22 0 0 0-3.49-1.53 5.58 5.58 0 0 0-1.87.31 3.67 3.67 0 0 0-1.49 1 4.83 4.83 0 0 0-1 1.73 7.77 7.77 0 0 0-.36 2.49zm31.4.76l.11-3.74h-.18l-4.64 6.88h-1l-4.9-6.88h-.22l.29 3.71v8.27h-4.15v-18h4.86l4.79 6.88h.14l4.5-6.88h4.9v18h-4.5zm20.44-5.62h-7.85V25.6h-4.68v-18h17.21v18h-4.68zm21.46 5.65l.18-2.56h-.11l-8.67 10.77h-3.67v-18h4.68v8.57l-.22 2.45h.14l8.68-11h3.67v18h-4.68zm21.02-5.65h-4.64q-.22 2.56-.56 5.08a23 23 0 0 1-1 4.52 9.33 9.33 0 0 1-1.87 3.24 3.71 3.71 0 0 1-2.86 1.24 6 6 0 0 1-3-.53l.58-3.83a3.08 3.08 0 0 0 1.08.22 1.8 1.8 0 0 0 1.31-.61 5.38 5.38 0 0 0 1-2.21 27.06 27.06 0 0 0 .74-4.32q.29-2.73.4-6.93h13.43v18H175zm22.18 5.65l.18-2.56h-.11l-8.67 10.77H185v-18h4.68v8.57l-.22 2.45h.14l8.68-11h3.67v18h-4.68zm22.9-.03l.11-3.74h-.18l-4.64 6.88h-1l-4.9-6.88h-.22l.29 3.71v8.27h-4.18v-18h4.86l4.79 6.88h.14l4.5-6.88h4.9v18h-4.5zm8.53 4.52h4v3.85h-4zM10.7 11.66l12.98 7.68-5.34 3.16L.02 11.66 18.34 1.13l5.34 3.07-12.98 7.46z"/><path class="bcls-1" d="M34.46 19.52L21.48 27.2l5.35 3.16 18.32-10.84L26.83 8.98l-5.35 3.07 12.98 7.47z"/></symbol></svg>